<svg xmlns="http://www.w3.org/2000/svg" xmlns:xlink="http://www.w3.org/1999/xlink" version="1.1" x="0px" y="0px" width="100px" height="100px" viewBox="0 0 100 100" enable-background="new 0 0 100 100" xml:space="preserve">
<g id="Captions">
</g>
<g id="Your_Icon">
	<path fill="#000000" d="M88.305,87.124h-76.61c-4.224,0-7.659-3.436-7.659-7.66V20.533c0-4.223,3.436-7.657,7.659-7.657h19.151   c3.753,0,8.631,2.21,11.105,5.031l2.551,2.929c1.783,2.036,5.732,3.825,8.444,3.825h35.359c4.225,0,7.66,3.437,7.66,7.658v47.145   C95.965,83.688,92.529,87.124,88.305,87.124z M11.694,16.405c-2.277,0-4.127,1.852-4.127,4.127v58.932   c0,2.274,1.85,4.127,4.127,4.127h76.61c2.277,0,4.129-1.853,4.129-4.127V32.318c0-2.274-1.852-4.127-4.129-4.127H52.946   c-3.751,0-8.629-2.211-11.104-5.033l-2.551-2.928c-1.785-2.035-5.733-3.825-8.446-3.825H11.694z"/>
</g>
</svg>